<svg t="1668905431840" class="icon" viewBox="0 0 1024 1024" version="1.1" xmlns="http://www.w3.org/2000/svg" p-id="3894"
    data-spm-anchor-id="a313x.7781069.0.i12">
    <path
        d="M776 160.7C868.4 241.4 926.8 360 926.8 492c0 242.5-197.3 439.8-439.8 439.8-96.8 0-186.3-31.4-259-84.5 77.4 67.6 178.5 108.5 289 108.5 242.5 0 439.8-197.3 439.8-439.8 0-145.8-71.2-275.2-180.8-355.3z"
        p-id="3895">
        <animate id="one" attributeName="fill" attributeType="XML" values="yellow;green;darkred;blue;yellow" begin="0s"
            dur="20s" fill="remove" repeatCount="indefinite"></animate>
        <animateTransform attributeName="transform" attributeType="XML" type="rotate" values="0 512 512;360 512 512"
            begin="0s" dur="4s" fill="freeze" repeatCount="indefinite" additive="sum"></animateTransform>
        <animateTransform attributeName="transform" attributeType="XML" type="rotate" values="0 512 512;360 512 512"
            begin="outer.click" dur="1s" fill="freeze" repeatCount="indefinite" additive="sum"></animateTransform>
        <!-- 外圈阴影 -->
    </path>

    



    <path
        d="M512 905.1c-53.1 0-104.5-10.4-153-30.9-46.8-19.8-88.8-48.1-124.9-84.2-36.1-36.1-64.4-78.1-84.2-124.9-20.5-48.5-30.9-99.9-30.9-153 0-53.1 10.4-104.5 30.9-153 19.8-46.8 48.1-88.8 84.2-124.9 36.1-36.1 78.1-64.4 124.9-84.2 48.5-20.5 99.9-30.9 153-30.9s104.5 10.4 153 30.9c46.8 19.8 88.8 48.1 124.9 84.2 36.1 36.1 64.4 78.1 84.2 124.9 20.5 48.5 30.9 99.9 30.9 153 0 53.1-10.4 104.5-30.9 153-19.8 46.8-48.1 88.8-84.2 124.9-36.1 36.1-78.1 64.4-124.9 84.2-48.5 20.5-99.9 30.9-153 30.9z m0-766.2c-205.7 0-373.1 167.4-373.1 373.1S306.3 885.1 512 885.1c205.7 0 373.1-167.4 373.1-373.1S717.7 138.9 512 138.9z"
         p-id="3896">
        <!-- 内圈 -->
        <animate id="one" attributeName="fill" attributeType="XML" values="yellow;green;darkred;blue;yellow" begin="0s"
            dur="20s" fill="remove" repeatCount="indefinite" additive="sum"></animate>
    </path>

    <path
        d="M512 971.8c-62.1 0-122.3-12.2-179-36.1-54.8-23.2-103.9-56.3-146.2-98.5-42.2-42.2-75.4-91.4-98.5-146.2-24-56.7-36.1-116.9-36.1-179s12.2-122.3 36.1-179c23.2-54.8 56.3-103.9 98.5-146.2 42.2-42.2 91.4-75.4 146.2-98.5 56.7-24 116.9-36.1 179-36.1s122.3 12.2 179 36.1c54.8 23.2 103.9 56.3 146.2 98.5s75.4 91.4 98.5 146.2c24 56.7 36.1 116.9 36.1 179 0 62.1-12.2 122.3-36.1 179-23.2 54.8-56.3 103.9-98.5 146.2s-91.4 75.4-146.2 98.5c-56.7 24-116.9 36.1-179 36.1z m0-899.6C269.5 72.2 72.2 269.5 72.2 512S269.5 951.8 512 951.8 951.8 754.5 951.8 512 754.5 72.2 512 72.2z"
        fill="#000042" p-id="3897">
        <!-- 外圈 -->
    </path>
    <path
        d="M540.7 541.2c-2 0-4-0.6-5.8-1.8L337.5 399.9c-4.5-3.2-5.6-9.4-2.4-13.9 3.2-4.5 9.4-5.6 13.9-2.4L546.5 523c4.5 3.2 5.6 9.4 2.4 13.9-2 2.8-5.1 4.3-8.2 4.3z"
        fill="#000042" p-id="3901" data-spm-anchor-id="a313x.7781069.0.i15" class=""
        style="stroke: #000066; fill: none;stroke-width: 36px;">
        <animateTransform attributeName="transform" attributeType="XML" type="rotate" from="0 512 512" to="360 512 512"
            begin="0s" dur="60s" fill="freeze" repeatCount="indefinite" additive="sum"></animateTransform>
    </path>


    <path
        d="M536.6 839.7c-5.2 0-9.6-4.1-10-9.4l-23.2-355.7c-0.4-5.5 3.8-10.3 9.3-10.6 5.5-0.4 10.3 3.8 10.6 9.3L546.5 829c0.4 5.5-3.8 10.3-9.3 10.6-0.1 0.1-0.4 0.1-0.6 0.1z"
        fill="#000042" p-id="3902" data-spm-anchor-id="a313x.7781069.0.i14" class=""
        style="stroke: #000066; fill: none;stroke-width: 32px;">
        <animateTransform attributeName="transform" attributeType="XML" type="rotate" from="0 512 512" to="360 512 512"
            begin="0s" dur="4s" fill="freeze" repeatCount="indefinite" additive="sum"></animateTransform>
    </path>


    <path d="M512 511.9m-17.2 0a17.2 17.2 0 1 0 34.4 0 17.2 17.2 0 1 0-34.4 0Z" p-id="3903">
        <animate attributeName="fill" attributeType="XML" values="yellow;green;darkred;blue;yellow" begin="0s" dur="20s"
            fill="remove" repeatCount="indefinite" additive="sum">
            </animate>
    </path>
</svg>