<svg t="1669117208206" class="icon" viewBox="0 0 1024 1024" version="1.1" xmlns="http://www.w3.org/2000/svg" p-id="4721">
    <path
        d="M512 0a512 512 0 1 0 0 1024A512 512 0 0 0 512 0z m189.001143 706.56l-75.337143-0.365714L512 570.733714l-113.517714 135.314286-75.483429 0.365714a9.069714 9.069714 0 0 1-9.142857-9.142857c0-2.194286 0.731429-4.242286 2.194286-5.924571L464.603429 514.194286 315.977143 337.188571a9.142857 9.142857 0 0 1 6.948571-15.067428l75.556572 0.292571L512 457.801143l113.517714-135.314286 75.337143-0.292571c5.12 0 9.216 3.949714 9.216 9.142857a9.508571 9.508571 0 0 1-2.194286 5.851428l-148.48 177.078858L708.022857 691.419429a9.142857 9.142857 0 0 1-6.948571 15.067428z"
        fill="#bd3124" p-id="4722"></path>
</svg>