<svg t="1669457157382" class="icon" viewBox="0 0 1024 1024" version="1.1" xmlns="http://www.w3.org/2000/svg" p-id="4612" fill="#bd3124"><path d="M420.6 54.7c50-12.7 103-13.4 153.3-1.9 32 7.3 62.8 19.5 91.2 36 24.3 14.1 46.5 31.6 66.6 51.2 20.9 0.1 41.9-0.1 62.8 0.1 31.9 0.9 63 15.1 84.6 38.6 20 21.5 31.7 50.6 32 80v317.7c-3.6-2.1-7.3-4.1-11-6.1-17.1-9.2-33.8-19.5-52-26.5-62.4-25-135.2-22.1-195.3 8-52.7 26-95.3 71.9-117 126.6-14.7 36.6-20 76.8-15.7 116 4.8 44.6 22.7 87.6 50.6 122.7 11.3 14 22.7 27.8 33.9 41.8H228.4c-10.9-0.1-22 0.5-32.8-1.2-17.7-2.5-34.9-9-49.7-19-22.7-15-40-38-48.1-64-3.4-10.4-4.7-21.2-5.7-32V257c0.4-2.5 0.6-5.1 0.7-7.6 1.8-20.9 9.4-41.2 21.5-58.3 15.8-22.6 39.6-39.4 66.2-46.6 11.4-3.2 23.2-4.5 35.1-4.4H270c2 0.1 3-1.8 4.3-2.9 40.2-39.8 91.3-68.6 146.3-82.5m-28 60.2c-16.3 6.8-31.7 15.6-46.5 25.2 103.4-0.1 206.7-0.1 310.1 0-29.2-19.5-62-33.7-96.4-41.1-55.6-12-114.9-6.5-167.2 15.9m-88.1 229.9c-10 0.7-18.7 9.2-19.8 19.2-0.4 5.4-0.6 11.2 1.8 16.2 3.3 7.5 11.1 12.8 19.3 12.9h392c10.3-0.4 19.3-9.1 20.4-19.3 0.4-5.8 0.5-12-2.4-17.3-3.7-7.2-11.6-11.9-19.7-11.7-130.5-0.1-261-0.3-391.6 0m-3.4 181.3c-8.5 2.1-15.2 9.7-16.3 18.4-0.6 5.8-0.6 12.1 2.3 17.4 3.7 7.2 11.6 12.1 19.7 11.9h149.4c10.3-0.1 19.6-8.5 21-18.6 0.6-5.8 0.7-12.1-2.1-17.4-3.6-7.4-11.6-12.3-19.8-12.3H312c-3.7-0.1-7.3-0.4-10.9 0.6m-0.8 180.6c-5.5 1.4-10.3 5.1-13 10.1-3.4 5.6-3 12.4-2.6 18.7 0.9 10.2 10.1 18.8 20.4 18.9h103.6c10.3 0 19.7-8.7 20.6-18.9 0.3-6.3 0.8-13.1-2.6-18.7-3.5-6.4-10.6-10.7-18-10.7H305.9c-1.9-0.1-3.8 0.1-5.6 0.6z" p-id="4613"></path><path d="M737.3 552.2c51-5.4 103.9 8.1 145.9 37.7 28.2 19.6 51.7 46.1 67.8 76.4 18.3 34.3 26.9 73.5 24.9 112.3-1.6 35-12 69.5-29.8 99.6-17 28.8-40.8 53.5-68.9 71.7-30 19.5-64.9 31.4-100.6 34.1-34.6 2.8-69.9-2.9-101.9-16.5-30.8-13-58.4-33.3-80.1-58.7-31.6-36.7-50.3-84.4-51.8-132.8-1.4-34.7 5.8-69.6 20.6-100.9 14.1-29.7 35-56.1 60.7-76.6 32.2-26 72-42.3 113.2-46.3m108 136.3c-32.6 35.9-65.1 71.8-97.6 107.7-24.3-22-48.6-44.1-73-66.2-3-2.9-6.3-5.6-10.3-6.9-9.5-3.6-21-0.4-27.1 7.7-7.7 9.4-6.7 24.5 2.4 32.6 27.3 24.8 54.6 49.5 81.9 74.3 4.4 3.9 8.7 8.1 13.3 11.8 9.4 7.3 24.2 6 32.1-2.9l113.7-125.4c8.7-9.5 7.6-26-2.4-34.1-9.2-8.1-24.6-7.5-33 1.4z" p-id="4614" ></path></svg>