<svg t="1669006995109" class="icon" viewBox="0 0 1024 1024" version="1.1" xmlns="http://www.w3.org/2000/svg"
        p-id="3096" width="200" height="200">
        <path d="M263.68 466.261333m-92.16 0a92.16 92.16 0 1 0 184.32 0 92.16 92.16 0 1 0-184.32 0Z" fill="#333333"
             p-id="3097">
            <animate attributeName="fill" attributeType="XML" values="yellow;green;darkred;blue;yellow" begin="0s" dur="20s"
            fill="remove" repeatCount="indefinite" additive="sum">
            </animate></path>
        <path
            d="M620.714667 962.730667a61.44 61.44 0 0 1-42.837334-105.301334l208.384-204.8a61.269333 61.269333 0 0 1 98.474667 17.066667l98.986667 204.8a61.610667 61.610667 0 0 1-55.466667 88.405333h-307.2zM829.44 685.738667a9.898667 9.898667 0 0 0-7.168 2.901333L614.4 893.952a10.410667 10.410667 0 0 0-2.389333 11.434667 9.898667 9.898667 0 0 0 9.386666 6.144h307.2a9.728 9.728 0 0 0 8.704-4.949334 9.898667 9.898667 0 0 0 0-9.898666l-98.986666-204.8a9.557333 9.557333 0 0 0-7.338667-5.461334zM595.797333 875.690667z"
            fill="#333333" p-id="3098"></path>
        <path
            d="M707.584 791.210667a26.112 26.112 0 0 1-18.090667-7.509334L465.066667 559.445333a25.6 25.6 0 0 1 36.181333-36.352L725.845333 747.52a25.770667 25.770667 0 0 1 0 36.181333 26.112 26.112 0 0 1-18.261333 7.509334zM365.568 347.477333a147.114667 147.114667 0 0 1-39.253333-5.461333 143.530667 143.530667 0 0 1-30.890667-263.338667 143.530667 143.530667 0 0 1 139.776 250.538667 142.506667 142.506667 0 0 1-69.632 18.261333z m0-235.690666a93.013333 93.013333 0 0 0-44.885333 11.605333 92.16 92.16 0 1 0 70.144-8.192 98.816 98.816 0 0 0-25.6-3.413333zM251.221333 758.613333a123.050667 123.050667 0 0 1-34.133333-4.778666l-13.994667-3.925334a129.365333 129.365333 0 0 1-13.653333-4.778666 25.6 25.6 0 0 1 19.626667-47.274667 63.317333 63.317333 0 0 0 8.021333 2.730667l13.824 3.925333a74.581333 74.581333 0 0 0 91.989333-51.2l45.397334-160.597333a74.581333 74.581333 0 0 0-51.2-91.818667l-13.994667-3.925333a74.581333 74.581333 0 0 0-91.818667 51.2l-46.08 163.157333v1.706667a25.6 25.6 0 0 1-50.005333-11.093334c0-3.242667 1.194667-5.12 1.706667-7.168l45.397333-160.426666a125.952 125.952 0 0 1 155.136-86.698667l13.994667 3.925333a125.952 125.952 0 0 1 86.528 155.136L372.053333 667.306667a124.416 124.416 0 0 1-59.562666 75.264 126.293333 126.293333 0 0 1-61.269334 16.042666z"
            fill="#333333" p-id="3099"></path>
        <path
            d="M106.837333 963.413333a66.389333 66.389333 0 0 1-18.261333-2.56l-5.802667-1.536a67.242667 67.242667 0 0 1-40.106666-31.744 66.218667 66.218667 0 0 1-5.973334-51.2l77.482667-273.066666c0-1.706667 1.024-3.242667 1.706667-4.949334a26.453333 26.453333 0 0 1 31.744-14.506666 25.088 25.088 0 0 1 17.066666 29.354666 75.093333 75.093333 0 0 0 44.202667 85.333334 25.6 25.6 0 0 1 14.848 30.549333L170.666667 914.773333a67.072 67.072 0 0 1-64.341334 48.64zM138.24 706.048L85.333333 890.709333a15.530667 15.530667 0 0 0 1.365334 11.946667 15.018667 15.018667 0 0 0 9.386666 7.338667l5.802667 1.706666a15.872 15.872 0 0 0 19.285333-10.922666L168.96 733.866667a121.514667 121.514667 0 0 1-30.72-27.818667zM514.901333 604.842667a72.874667 72.874667 0 0 1-19.114666-2.730667l-118.101334-34.133333a25.6 25.6 0 1 1 14.848-48.64l118.101334 34.133333a18.773333 18.773333 0 0 0 23.04-12.8 18.773333 18.773333 0 0 0-1.706667-14.165333 18.432 18.432 0 0 0-11.093333-8.874667l-118.272-34.133333a25.6 25.6 0 0 1 13.994666-49.322667l118.101334 34.133333a69.461333 69.461333 0 0 1 41.984 34.133334 70.144 70.144 0 0 1 6.314666 53.077333 70.826667 70.826667 0 0 1-67.242666 51.2zM466.602667 962.730667H460.8a67.072 67.072 0 0 1-66.901333-66.901334v-157.013333a25.6 25.6 0 0 1 51.2 0v157.013333a15.872 15.872 0 0 0 15.701333 15.701334h5.973333a15.872 15.872 0 0 0 15.701334-15.701334V715.264a25.6 25.6 0 0 1 51.2 0v180.565333a67.072 67.072 0 0 1-67.072 66.901334z"
            fill="#333333" p-id="3100"></path>
        <path
            d="M463.36 783.701333a69.461333 69.461333 0 0 1-35.84-10.069333l-105.130667-63.317333a25.6 25.6 0 1 1 26.453334-43.861334l105.130666 63.317334a18.602667 18.602667 0 0 0 14.165334 2.048 18.432 18.432 0 0 0 11.434666-8.362667 18.602667 18.602667 0 0 0-6.314666-25.6l-105.130667-63.488a25.6 25.6 0 1 1 26.282667-43.861333l105.301333 63.488a69.802667 69.802667 0 0 1 23.722667 95.914666 69.12 69.12 0 0 1-43.008 31.573334 64.170667 64.170667 0 0 1-17.066667 2.218666z"
            fill="#333333" p-id="3101"></path>
        <path
            d="M774.826667 876.032l82.602666-81.237333a37.376 37.376 0 0 1 59.733334 10.24L955.733333 886.101333a37.376 37.376 0 0 1-34.133333 53.589334h-120.490667a37.205333 37.205333 0 0 1-26.282666-63.658667z"
             p-id="3102">
            <animate id="one" attributeName="fill" attributeType="XML" values="yellow;green;darkred;blue;yellow" begin="0s"
            dur="20s" fill="remove" repeatCount="indefinite" additive="sum"></animate>
            </path>
            
    </svg>